<mxfile host="app.diagrams.net" agent="Mozilla/5.0 (Windows NT 10.0; Win64; x64) AppleWebKit/537.36 (KHTML, like Gecko) Chrome/129.0.0.0 Safari/537.36" version="24.8.0">
  <diagram name="Page-1" id="nCUrrFJiEwhXjAQDx65x">
    <mxGraphModel dx="880" dy="468" grid="1" gridSize="10" guides="1" tooltips="1" connect="1" arrows="1" fold="1" page="1" pageScale="1" pageWidth="850" pageHeight="1100" math="0" shadow="0">
      <root>
        <mxCell id="0" />
        <mxCell id="1" parent="0" />
        <mxCell id="j08fA-Ux8YV6Fys5FGSm-1" value="Contract" style="swimlane;fontStyle=1;align=center;verticalAlign=top;childLayout=stackLayout;horizontal=1;startSize=26;horizontalStack=0;resizeParent=1;resizeParentMax=0;resizeLast=0;collapsible=1;marginBottom=0;whiteSpace=wrap;html=1;" vertex="1" parent="1">
          <mxGeometry x="240" y="140" width="160" height="110" as="geometry" />
        </mxCell>
        <mxCell id="j08fA-Ux8YV6Fys5FGSm-2" value="- number: Integer&lt;div&gt;- date:Date&lt;br&gt;- totalValue:Double&lt;br&gt;&lt;/div&gt;" style="text;strokeColor=none;fillColor=none;align=left;verticalAlign=top;spacingLeft=4;spacingRight=4;overflow=hidden;rotatable=0;points=[[0,0.5],[1,0.5]];portConstraint=eastwest;whiteSpace=wrap;html=1;" vertex="1" parent="j08fA-Ux8YV6Fys5FGSm-1">
          <mxGeometry y="26" width="160" height="54" as="geometry" />
        </mxCell>
        <mxCell id="j08fA-Ux8YV6Fys5FGSm-3" value="" style="line;strokeWidth=1;fillColor=none;align=left;verticalAlign=middle;spacingTop=-1;spacingLeft=3;spacingRight=3;rotatable=0;labelPosition=right;points=[];portConstraint=eastwest;strokeColor=inherit;" vertex="1" parent="j08fA-Ux8YV6Fys5FGSm-1">
          <mxGeometry y="80" width="160" height="30" as="geometry" />
        </mxCell>
        <mxCell id="j08fA-Ux8YV6Fys5FGSm-4" value="Intallment" style="swimlane;fontStyle=1;align=center;verticalAlign=top;childLayout=stackLayout;horizontal=1;startSize=26;horizontalStack=0;resizeParent=1;resizeParentMax=0;resizeLast=0;collapsible=1;marginBottom=0;whiteSpace=wrap;html=1;" vertex="1" parent="1">
          <mxGeometry x="580" y="140" width="160" height="100" as="geometry" />
        </mxCell>
        <mxCell id="j08fA-Ux8YV6Fys5FGSm-5" value="- dueDate: Date&lt;div&gt;- Amount:Double&lt;br&gt;&lt;br&gt;&lt;/div&gt;" style="text;strokeColor=none;fillColor=none;align=left;verticalAlign=top;spacingLeft=4;spacingRight=4;overflow=hidden;rotatable=0;points=[[0,0.5],[1,0.5]];portConstraint=eastwest;whiteSpace=wrap;html=1;" vertex="1" parent="j08fA-Ux8YV6Fys5FGSm-4">
          <mxGeometry y="26" width="160" height="44" as="geometry" />
        </mxCell>
        <mxCell id="j08fA-Ux8YV6Fys5FGSm-6" value="" style="line;strokeWidth=1;fillColor=none;align=left;verticalAlign=middle;spacingTop=-1;spacingLeft=3;spacingRight=3;rotatable=0;labelPosition=right;points=[];portConstraint=eastwest;strokeColor=inherit;" vertex="1" parent="j08fA-Ux8YV6Fys5FGSm-4">
          <mxGeometry y="70" width="160" height="30" as="geometry" />
        </mxCell>
        <mxCell id="j08fA-Ux8YV6Fys5FGSm-7" value="" style="endArrow=open;html=1;rounded=0;exitX=1;exitY=0.5;exitDx=0;exitDy=0;entryX=-0.004;entryY=0.601;entryDx=0;entryDy=0;entryPerimeter=0;strokeWidth=2;endFill=0;endSize=14;" edge="1" parent="1" source="j08fA-Ux8YV6Fys5FGSm-2" target="j08fA-Ux8YV6Fys5FGSm-5">
          <mxGeometry width="50" height="50" relative="1" as="geometry">
            <mxPoint x="440" y="230" as="sourcePoint" />
            <mxPoint x="580" y="193" as="targetPoint" />
          </mxGeometry>
        </mxCell>
        <mxCell id="j08fA-Ux8YV6Fys5FGSm-8" value="*" style="edgeLabel;html=1;align=center;verticalAlign=middle;resizable=0;points=[];fontSize=22;" vertex="1" connectable="0" parent="j08fA-Ux8YV6Fys5FGSm-7">
          <mxGeometry x="0.6393" y="11" relative="1" as="geometry">
            <mxPoint y="38" as="offset" />
          </mxGeometry>
        </mxCell>
        <mxCell id="j08fA-Ux8YV6Fys5FGSm-9" value="- Installment&lt;div&gt;&lt;br&gt;&lt;/div&gt;" style="text;html=1;align=center;verticalAlign=middle;resizable=0;points=[];autosize=1;strokeColor=none;fillColor=none;" vertex="1" parent="1">
          <mxGeometry x="460" y="160" width="90" height="40" as="geometry" />
        </mxCell>
      </root>
    </mxGraphModel>
  </diagram>
</mxfile>
